<svg width="25" height="25" viewBox="0 0 25 25" fill="none" xmlns="http://www.w3.org/2000/svg">
<path d="M6.40427 15.2865L4.61662 23.0274C4.56126 23.2618 4.57788 23.5075 4.6643 23.7323C4.75072 23.9571 4.90293 24.1506 5.10105 24.2876C5.29916 24.4245 5.53398 24.4985 5.77482 24.5C6.01566 24.5014 6.25134 24.4302 6.45106 24.2956L12.9838 19.9404L19.5166 24.2956C19.7209 24.4313 19.9619 24.5011 20.2072 24.4957C20.4524 24.4904 20.6901 24.41 20.8884 24.2655C21.0866 24.121 21.2358 23.9192 21.3159 23.6874C21.3961 23.4555 21.4033 23.2047 21.3366 22.9686L19.1422 15.2901L24.5844 10.3927C24.7587 10.2357 24.8832 10.0311 24.9424 9.80418C25.0017 9.57725 24.9931 9.33792 24.9178 9.11579C24.8425 8.89367 24.7037 8.69849 24.5186 8.5544C24.3336 8.41031 24.1103 8.32362 23.8765 8.30506L17.0366 7.76036L14.0768 1.20842C13.9824 0.997452 13.829 0.818302 13.6351 0.692596C13.4411 0.56689 13.2149 0.5 12.9838 0.5C12.7527 0.5 12.5265 0.56689 12.3326 0.692596C12.1386 0.818302 11.9852 0.997452 11.8908 1.20842L8.93099 7.76036L2.0911 8.30386C1.86129 8.32207 1.6416 8.40609 1.45829 8.54589C1.27499 8.68569 1.13584 8.87533 1.05749 9.09214C0.979149 9.30895 0.964925 9.54374 1.01652 9.76842C1.06812 9.9931 1.18336 10.1982 1.34845 10.3591L6.40427 15.2865ZM9.82722 10.0963C10.0414 10.0794 10.247 10.0053 10.4227 9.88157C10.5983 9.75787 10.7374 9.58921 10.8254 9.39325L12.9838 4.61697L15.1422 9.39325C15.2302 9.58921 15.3693 9.75787 15.545 9.88157C15.7206 10.0053 15.9262 10.0794 16.1404 10.0963L20.9059 10.4742L16.9814 14.0064C16.6407 14.3135 16.5051 14.7862 16.6299 15.2277L18.1332 20.4887L13.6509 17.5001C13.4541 17.368 13.2226 17.2975 12.9856 17.2975C12.7487 17.2975 12.5171 17.368 12.3203 17.5001L7.63644 20.6231L8.89619 15.1689C8.94238 14.9683 8.93619 14.7592 8.87819 14.5617C8.8202 14.3642 8.71237 14.1849 8.56506 14.0412L4.92016 10.4874L9.82722 10.0963Z" fill="#5577F0"/>
</svg>
