<svg width="24" height="25" viewBox="0 0 24 25" fill="none" xmlns="http://www.w3.org/2000/svg">
<path d="M23.9333 9.11602C23.8578 8.89389 23.719 8.6987 23.5339 8.55456C23.3489 8.41043 23.1256 8.32364 22.8918 8.30493L16.0515 7.7614L13.0915 1.20907C12.9972 0.99803 12.8439 0.818785 12.65 0.692965C12.4561 0.567145 12.23 0.500127 11.9988 0.5C11.7677 0.499873 11.5415 0.566643 11.3474 0.69225C11.1534 0.817857 10.9999 0.996934 10.9054 1.20787L7.94538 7.7614L1.10509 8.30493C0.875262 8.32313 0.65555 8.40717 0.472235 8.54697C0.28892 8.68678 0.149763 8.87644 0.0714138 9.09326C-0.00693554 9.31008 -0.0211603 9.54488 0.0304414 9.76958C0.0820431 9.99427 0.197286 10.1993 0.362384 10.3603L5.41731 15.288L3.62955 23.0294C3.57527 23.2637 3.59266 23.5089 3.67949 23.7333C3.76631 23.9576 3.91855 24.1506 4.11645 24.2873C4.31435 24.4241 4.54877 24.4981 4.7893 24.5C5.02982 24.5018 5.26535 24.4313 5.46531 24.2976L11.9984 19.9422L18.5316 24.2976C18.736 24.4333 18.977 24.5032 19.2222 24.4978C19.4675 24.4924 19.7052 24.412 19.9035 24.2675C20.1017 24.123 20.2509 23.9212 20.3311 23.6894C20.4112 23.4575 20.4184 23.2067 20.3517 22.9706L18.1572 15.2916L23.5997 10.3938C23.9561 10.0723 24.0868 9.57076 23.9333 9.11602Z" fill="#5577F0"/>
</svg>
