<svg width="25" height="25" viewBox="0 0 25 25" fill="none" xmlns="http://www.w3.org/2000/svg">
<path d="M4.62308 23.0301C4.58197 23.2061 4.58123 23.3891 4.62092 23.5655C4.66061 23.7418 4.73969 23.9068 4.85224 24.0482C4.96479 24.1897 5.10788 24.3038 5.2708 24.382C5.43372 24.4602 5.61224 24.5006 5.79297 24.5C6.02998 24.5 6.2617 24.4299 6.4589 24.2984L12.9923 19.9428L19.5256 24.2984C19.73 24.4341 19.971 24.504 20.2163 24.4986C20.4616 24.4932 20.6993 24.4129 20.8976 24.2683C21.0958 24.1238 21.245 23.922 21.3252 23.6902C21.4053 23.4583 21.4125 23.2074 21.3458 22.9713L19.1512 15.2921L24.5939 10.3942C24.7682 10.2372 24.8927 10.0326 24.952 9.80566C25.0112 9.5787 25.0027 9.33935 24.9274 9.1172C24.852 8.89506 24.7132 8.69986 24.5282 8.55576C24.3431 8.41165 24.1198 8.32495 23.886 8.30639L17.0455 7.76164L14.0853 1.20909C13.9911 0.998047 13.8377 0.818796 13.6438 0.692971C13.45 0.567147 13.2238 0.500127 12.9926 0.5C12.7615 0.499873 12.5353 0.566645 12.3412 0.692256C12.1472 0.817868 11.9937 0.996951 11.8992 1.20789L8.93906 7.76164L2.09853 8.30519C1.8687 8.3234 1.64898 8.40743 1.46566 8.54724C1.28234 8.68705 1.14318 8.87672 1.06482 9.09355C0.986472 9.31038 0.972247 9.54519 1.02385 9.76989C1.07545 9.99459 1.1907 10.1997 1.3558 10.3606L6.41211 15.2885L4.62308 23.0301ZM12.9923 4.61676L15.4424 10.0414L16.1479 10.0978L20.9151 10.4758L16.9903 14.0082L16.9891 14.0106L16.4335 14.5098L16.6387 15.2261V15.2297L18.1421 20.4912L12.9923 17.0583V4.61676Z" fill="#5577F0"/>
</svg>
