<svg width="140" height="140" viewBox="0 0 140 140" fill="none" xmlns="http://www.w3.org/2000/svg">
<path d="M89.4414 43.2304L124.154 48.2753C126.547 48.6308 128.215 50.8456 127.846 53.2382C127.709 54.1952 127.258 55.0702 126.574 55.7402L101.459 80.2265L90.8906 76.7812L111.781 56.4238L82.9062 52.2265L70 26.0722L57.0937 52.2265L28.2187 56.4238L49.1094 76.7949L44.1738 105.547L70 91.9706L95.8262 105.533L105.382 103.086L107.393 114.803C107.803 117.182 106.203 119.437 103.824 119.848C102.881 120.012 101.896 119.861 101.049 119.41L70 103.086L38.9512 119.41C38.2293 119.791 37.4152 119.962 36.601 119.904C35.7868 119.846 35.0051 119.561 34.3447 119.082C33.6842 118.602 33.1714 117.947 32.8643 117.19C32.5573 116.434 32.4683 115.607 32.6074 114.803L38.541 80.2265L13.4258 55.7402C12.5941 54.9295 12.1183 53.8218 12.1029 52.6605C12.0875 51.4992 12.5338 50.3792 13.3437 49.5468C14.0137 48.8632 14.8887 48.412 15.8457 48.2753L50.5586 43.2304L66.0762 11.7714C67.1562 9.61126 69.7812 8.72258 71.9414 9.78899C72.8027 10.2128 73.5 10.9101 73.9238 11.7714L89.4414 43.2304Z" fill="#465489"/>
<g clip-path="url(#clip0)">
<path d="M123.2 86.8001C123.2 92.3696 120.987 97.711 117.049 101.649C113.111 105.588 107.769 107.8 102.2 107.8C96.6304 107.8 91.289 105.588 87.3507 101.649C83.4124 97.711 81.2 92.3696 81.2 86.8001C81.2 81.2305 83.4124 75.8891 87.3507 71.9508C91.289 68.0125 96.6304 65.8 102.2 65.8C107.769 65.8 113.111 68.0125 117.049 71.9508C120.987 75.8891 123.2 81.2305 123.2 86.8001ZM112.779 78.8463C112.591 78.6594 112.368 78.5123 112.122 78.4137C111.877 78.3152 111.614 78.2671 111.349 78.2725C111.084 78.2779 110.823 78.3366 110.582 78.4451C110.341 78.5536 110.123 78.7097 109.944 78.9041L100.827 90.5197L95.333 85.0229C94.9597 84.6752 94.4661 84.4858 93.9561 84.4948C93.446 84.5038 92.9594 84.7105 92.5987 85.0712C92.238 85.4319 92.0314 85.9185 92.0224 86.4286C92.0134 86.9386 92.2027 87.4322 92.5505 87.8054L99.4962 94.7538C99.6833 94.9406 99.9061 95.0878 100.151 95.1865C100.397 95.2853 100.659 95.3337 100.924 95.3288C101.188 95.3239 101.449 95.2658 101.69 95.158C101.931 95.0502 102.149 94.8949 102.329 94.7013L112.808 81.6026C113.165 81.2311 113.362 80.7344 113.357 80.2191C113.352 79.7037 113.146 79.2109 112.781 78.8463H112.779Z" fill="#465489"/>
</g>
<defs>
<clipPath id="clip0">
<rect width="42" height="42" fill="white" transform="translate(81.2 65.8)"/>
</clipPath>
</defs>
</svg>
