<svg width="94" height="100" viewBox="0 0 94 100" fill="none" xmlns="http://www.w3.org/2000/svg">
<path fill-rule="evenodd" clip-rule="evenodd" d="M9.625 10.9375C9.625 10.5231 9.78962 10.1257 10.0826 9.83265C10.3757 9.53962 10.7731 9.375 11.1875 9.375H64.3125C64.7269 9.375 65.1243 9.53962 65.4174 9.83265C65.7104 10.1257 65.875 10.5231 65.875 10.9375V59.2875C65.875 60.5307 66.3689 61.723 67.2479 62.6021C68.127 63.4811 69.3193 63.975 70.5625 63.975C71.8057 63.975 72.998 63.4811 73.8771 62.6021C74.7561 61.723 75.25 60.5307 75.25 59.2875V10.9375C75.25 8.03669 74.0977 5.2547 72.0465 3.20352C69.9953 1.15234 67.2133 0 64.3125 0H11.1875C8.2867 0 5.5047 1.15234 3.45352 3.20352C1.40234 5.2547 0.25 8.03669 0.25 10.9375V82.8125C0.25 88.85 5.15 93.75 11.1875 93.75H31C32.2432 93.75 33.4355 93.2561 34.3146 92.3771C35.1936 91.498 35.6875 90.3057 35.6875 89.0625C35.6875 87.8193 35.1936 86.627 34.3146 85.7479C33.4355 84.8689 32.2432 84.375 31 84.375H11.1875C10.7731 84.375 10.3757 84.2104 10.0826 83.9174C9.78962 83.6243 9.625 83.2269 9.625 82.8125V10.9375ZM23.6875 25C22.4443 25 21.252 25.4939 20.3729 26.3729C19.4939 27.252 19 28.4443 19 29.6875C19 30.9307 19.4939 32.123 20.3729 33.0021C21.252 33.8811 22.4443 34.375 23.6875 34.375H51.8125C53.0557 34.375 54.248 33.8811 55.1271 33.0021C56.0061 32.123 56.5 30.9307 56.5 29.6875C56.5 28.4443 56.0061 27.252 55.1271 26.3729C54.248 25.4939 53.0557 25 51.8125 25H23.6875ZM19 48.4375C19 47.1943 19.4939 46.002 20.3729 45.1229C21.252 44.2439 22.4443 43.75 23.6875 43.75H36.1875C37.4307 43.75 38.623 44.2439 39.5021 45.1229C40.3811 46.002 40.875 47.1943 40.875 48.4375C40.875 49.6807 40.3811 50.873 39.5021 51.7521C38.623 52.6311 37.4307 53.125 36.1875 53.125H23.6875C22.4443 53.125 21.252 52.6311 20.3729 51.7521C19.4939 50.873 19 49.6807 19 48.4375ZM92.5875 70.5437C93.0283 70.1137 93.38 69.601 93.6226 69.035C93.8652 68.469 93.994 67.8607 94.0015 67.2449C94.0091 66.6292 93.8952 66.018 93.6666 65.4462C93.4379 64.8744 93.0988 64.3532 92.6688 63.9125C92.2387 63.4717 91.726 63.12 91.16 62.8774C90.594 62.6348 89.9857 62.506 89.37 62.4985C88.7542 62.491 88.143 62.6048 87.5712 62.8334C86.9994 63.0621 86.4783 63.4012 86.0375 63.8313L60.875 88.4062L52.0063 79.5C51.1192 78.6703 49.9448 78.2172 48.7303 78.2363C47.5159 78.2554 46.3562 78.7452 45.4957 79.6024C44.6353 80.4597 44.1411 81.6174 44.1174 82.8318C44.0938 84.0462 44.5424 85.2224 45.3688 86.1125L57.5125 98.3C58.3835 99.175 59.5645 99.671 60.7991 99.6804C62.0337 99.6898 63.2221 99.2117 64.1063 98.35L92.5875 70.5375V70.5437Z" fill="#465489"/>
</svg>
