<svg width="140" height="140" viewBox="0 0 140 140" fill="none" xmlns="http://www.w3.org/2000/svg">
<path d="M70 33.0859C49.6456 33.0859 33.0859 49.6456 33.0859 70C33.0859 90.3678 49.6658 106.914 70 106.914C90.3514 106.914 106.914 90.35 106.914 70C106.914 49.6456 90.3544 33.0859 70 33.0859ZM70 98.7109C63.3011 98.7109 57.1312 96.4045 52.2413 92.5444C55.8707 86.2449 62.5693 82.3047 70 82.3047C77.4309 82.3047 84.1293 86.2449 87.7584 92.5444C82.8688 96.4045 76.6989 98.7109 70 98.7109ZM61.7969 65.8984C61.7969 61.3752 65.4768 57.6953 70 57.6953C74.5232 57.6953 78.2031 61.3752 78.2031 65.8984C78.2031 70.4216 74.5232 74.1016 70 74.1016C65.4768 74.1016 61.7969 70.4216 61.7969 65.8984ZM93.5629 86.3844C90.6702 82.2183 86.7535 78.9362 82.2322 76.8163C84.8258 73.9137 86.4062 70.0878 86.4062 65.8984C86.4062 56.852 79.0464 49.4922 70 49.4922C60.9536 49.4922 53.5938 56.852 53.5938 65.8984C53.5938 70.0878 55.1742 73.9137 57.7678 76.8163C53.2465 78.9362 49.33 82.2183 46.4371 86.3844C43.1944 81.7348 41.2891 76.0862 41.2891 70C41.2891 54.1688 54.1688 41.2891 70 41.2891C85.8312 41.2891 98.7109 54.1688 98.7109 70C98.7109 76.0862 96.8059 81.7348 93.5629 86.3844Z" fill="#465489"/>
<path d="M136.56 57.7489L125.674 55.971C124.307 50.5362 122.162 45.3709 119.273 40.5573L125.542 31.7805C126.707 30.1489 126.522 27.9141 125.104 26.4964L113.504 14.8958C112.086 13.478 109.851 13.2932 108.219 14.4586L99.4427 20.7277C94.6291 17.8382 89.4638 15.6934 84.029 14.3268L82.2508 3.44066C81.9271 1.4566 80.2129 0 78.2031 0H61.7969C59.7868 0 58.0729 1.4566 57.7489 3.44039L55.971 14.3265C50.5359 15.6929 45.3709 17.8377 40.5573 20.7274L31.7803 14.4583C30.1487 13.2929 27.9139 13.4777 26.4961 14.8955L14.8955 26.4961C13.4777 27.9139 13.2929 30.1487 14.458 31.7803L20.7271 40.5571C17.8377 45.3707 15.6929 50.5359 14.3262 55.9707L3.44012 57.7486C1.4566 58.0729 0 59.7868 0 61.7969V78.2031C0 80.2132 1.4566 81.9271 3.44039 82.2511L14.3265 84.029C15.6931 89.4641 17.838 94.6291 20.7274 99.4427L14.4583 108.219C13.2929 109.851 13.478 112.086 14.8958 113.504L26.4964 125.104C27.9141 126.522 30.1492 126.707 31.7805 125.542L40.5576 119.273C45.3712 122.162 50.5362 124.307 55.9713 125.674L57.7492 136.56C58.0732 138.543 59.7868 140 61.7969 140H78.2031C80.2132 140 81.9271 138.543 82.2511 136.56L84.0293 125.674C89.4641 124.307 94.6293 122.162 99.4429 119.273L108.22 125.542C109.852 126.707 112.087 126.522 113.504 125.104L125.105 113.504C126.523 112.086 126.707 109.851 125.542 108.219L119.273 99.4427C122.162 94.6291 124.307 89.4638 125.674 84.029L136.56 82.2511C138.543 81.9271 140 80.2132 140 78.2031V61.7969C140 59.7868 138.543 58.0729 136.56 57.7489ZM131.797 74.7171L121.62 76.379C119.933 76.6546 118.593 77.9486 118.259 79.6258C116.996 85.9655 114.528 91.9114 110.922 97.2981C109.972 98.7164 110.001 100.575 110.993 101.964L116.847 110.16L110.16 116.847L101.964 110.993C100.575 110.001 98.717 109.972 97.2981 110.922C91.9111 114.528 85.9655 116.996 79.6258 118.259C77.9486 118.593 76.6546 119.933 76.379 121.62L74.7171 131.797H65.2829L63.6207 121.62C63.3451 119.933 62.0512 118.593 60.3739 118.259C54.034 116.996 48.0884 114.528 42.7019 110.922C41.2833 109.972 39.4253 110 38.0363 110.993L29.8397 116.847L23.1528 110.16L29.0073 101.964C29.9994 100.575 30.0275 98.7167 29.0782 97.2981C25.4721 91.9114 23.0037 85.9657 21.741 79.6261C21.4069 77.9488 20.0673 76.6549 18.3797 76.3793L8.20312 74.7171V65.2829L18.3797 63.621C20.0673 63.3454 21.4069 62.0514 21.741 60.3742C23.0037 54.0345 25.4723 48.0889 29.0782 42.7022C30.0278 41.2839 29.9996 39.4256 29.0073 38.0365L23.1528 29.84L29.8397 23.153L38.0363 29.0076C39.4256 29.9996 41.2836 30.0281 42.7019 29.0784C48.0884 25.4726 54.034 23.004 60.3739 21.7413C62.0509 21.4071 63.3451 20.0676 63.6207 18.3799L65.2829 8.20312H74.7171L76.3793 18.3797C76.6549 20.0673 77.9488 21.4071 79.6261 21.741C85.9657 23.0037 91.9114 25.4723 97.2984 29.0782C98.7167 30.0278 100.575 29.9994 101.964 29.0073L110.161 23.1528L116.848 29.8397L110.993 38.0363C110.001 39.4253 109.973 41.2833 110.922 42.7019C114.528 48.0886 116.997 54.0343 118.259 60.3739C118.593 62.0512 119.933 63.3448 121.621 63.6207L131.797 65.2829V74.7171Z" fill="#465489"/>
</svg>
