<svg width="128" height="128" viewBox="0 0 128 128" fill="none" xmlns="http://www.w3.org/2000/svg">
<path d="M61.6957 27.7285L63.0374 13.9093C63.5682 8.35599 68.7541 4.58766 73.9924 5.94099C81.8732 7.98266 87.4091 15.3035 87.4091 23.6977V41.4018C87.4091 45.3393 87.4091 47.311 88.2607 48.7518C88.7449 49.5743 89.4099 50.2685 90.2032 50.7643C91.6032 51.6452 93.5107 51.6452 97.3199 51.6452H99.6299C109.564 51.6452 114.528 51.6452 117.585 53.9202C119.877 55.6293 121.493 58.1318 122.135 60.9668C122.987 64.7585 121.079 69.501 117.258 78.9743L115.357 83.6993C114.254 86.4359 113.802 89.3916 114.038 92.3327C115.392 109.098 102.097 123.22 85.8457 122.293L25.0391 118.798C18.3949 118.419 15.0757 118.227 12.0774 115.573C9.07323 112.918 8.5074 110.183 7.38157 104.717C4.98542 93.0887 5.09479 81.0835 7.7024 69.501C9.35323 62.221 16.3066 58.301 23.4874 59.2343C42.5274 61.6843 59.7882 47.4568 61.6957 27.7343V27.7285Z" stroke="#465489" stroke-width="10" stroke-linecap="round" stroke-linejoin="round"/>
<path d="M34.8332 61.0834L34.034 63.7492C28.8605 80.9954 29.1396 99.4185 34.8332 116.5" stroke="#465489" stroke-width="10" stroke-linecap="round" stroke-linejoin="round"/>
</svg>
